<svg id="Outlined" style='fill:#ffffff90;' height="512" viewBox="0 0 128 128" width="512" xmlns="http://www.w3.org/2000/svg"><g><path d="m105.3 71.1-24.7-29.6 7-24.1c.2-.7.1-1.5-.4-2.1-.4-.6-1.1-.9-1.9-.9-3.3 0-5.1 1.1-6.5 1.9-1.2.7-2.1 1.2-4.1 1.2s-2.9-.5-4.1-1.2c-1.4-.8-3.2-1.9-6.5-1.9s-5.1 1.1-6.5 1.9c-1.2.7-2.1 1.2-4.1 1.2s-2.9-.5-4.1-1.2c-1.4-.8-3.2-1.9-6.5-1.9-.7 0-1.4.3-1.9.9-.4.6-.6 1.4-.4 2.1l7 24.1-24.9 29.6c-3.9 4.7-6 10.6-6 16.6 0 14.3 11.7 26 26 26h42.7c14.3 0 26-11.7 26-26-.1-6.1-2.2-12-6.1-16.6zm-58.5-50.8c1.4.8 3.2 1.9 6.5 1.9s5.1-1.1 6.5-1.9c1.3-.7 2.2-1.3 4.2-1.3s2.9.5 4.1 1.2c1.4.8 3.2 1.9 6.6 1.9 3.3 0 5.1-1.1 6.5-1.9.3-.2.5-.3.7-.4l-5.9 20.5h-24l-5.9-20.5c.2.2.5.3.7.5zm38.5 88.7h-42.6c-11.7 0-21.3-9.5-21.3-21.3 0-5 1.8-9.8 4.9-13.6l24.2-29h26.9l24.2 29c3.2 3.8 4.9 8.6 4.9 13.6.1 11.7-9.4 21.3-21.2 21.3z"/><path d="m64 66.4c2.6 0 4.7 2.1 4.7 4.7 0 1.3 1.1 2.4 2.4 2.4s2.4-1.1 2.4-2.4c0-4.4-3-8.1-7.1-9.2v-2.7c0-1.3-1.1-2.4-2.4-2.4s-2.4 1.1-2.4 2.4v2.7c-4.1 1.1-7.1 4.8-7.1 9.2 0 5.2 4.2 9.5 9.5 9.5 2.6 0 4.7 2.1 4.7 4.7s-2.1 4.7-4.7 4.7-4.7-2.1-4.7-4.7c0-1.3-1.1-2.4-2.4-2.4s-2.4 1.1-2.4 2.4c0 4.4 3 8.1 7.1 9.2v2.7c0 1.3 1.1 2.4 2.4 2.4s2.4-1.1 2.4-2.4v-2.7c4.1-1.1 7.1-4.8 7.1-9.2 0-5.2-4.2-9.5-9.5-9.5-2.6 0-4.7-2.1-4.7-4.7s2.1-4.7 4.7-4.7z"/></g></svg>