<svg id="Capa_1" style='fill:#ffffff90;' height="512" viewBox="0 0 512 512" width="512" xmlns="http://www.w3.org/2000/svg"><g><path d="m177.277 89.725c-3.726-1.831-8.229-.295-10.059 3.431-6.692 13.619-10.086 28.272-10.086 43.551 0 54.516 44.352 98.868 98.867 98.868s98.867-44.352 98.867-98.868-44.352-98.867-98.867-98.867c-26.408 0-51.236 10.284-69.91 28.957-2.935 2.935-2.935 7.693 0 10.627 2.934 2.935 7.692 2.934 10.627.001 15.837-15.836 36.891-24.556 59.284-24.556 46.228 0 83.838 37.61 83.838 83.838 0 46.229-37.61 83.839-83.838 83.839s-83.838-37.61-83.838-83.839c0-12.961 2.875-25.384 8.546-36.923 1.83-3.725.294-8.228-3.431-10.059z"/><path d="m253.142 172.111c-12.62-.769-15.454-8.839-15.735-9.757l-.019.005c-.79-3.303-3.755-5.762-7.301-5.762-4.15 0-7.515 3.365-7.515 7.515 0 .811.132 1.591.37 2.323.442 1.565 5.118 16.372 23.721 19.974v9.998c0 4.151 3.365 7.515 7.515 7.515s7.515-3.364 7.515-7.515v-9.773c7.193-1.252 12.025-4.396 15.046-7.239 5.621-5.29 8.978-13.286 8.978-21.39 0-7.615-2.986-25.655-30.65-28.707-5.48-.605-9.389-2.348-11.62-5.183-1.969-2.503-2.182-5.268-2.182-6.34 0-1.322.363-12.913 12.913-12.913 8.273 0 11.589 5.283 12.192 6.388 1.135 2.709 3.811 4.613 6.932 4.613 4.15 0 7.515-3.364 7.515-7.515 0-1.202-.289-2.334-.791-3.342l.02-.009c-2.119-4.604-8.099-11.806-18.353-14.286v-10.087c0-4.151-3.365-7.515-7.515-7.515s-7.515 3.364-7.515 7.515v10.055c-14.832 3.522-20.428 17.361-20.428 27.095 0 10.823 7.119 24.247 27.182 26.463 17.269 1.905 17.269 10.834 17.269 13.768 0 3.117-1.116 7.498-4.247 10.445-2.959 2.787-7.432 4.022-13.297 3.661z"/><path d="m345.014 455.323c-27.911-27.876-55.287-43.207-81.499-45.681v-36.623c1.219.036 2.548.06 3.985.06 15.028 0 40.999-2.491 57.992-17.883 25.014-22.654 19.667-62.793 19.427-64.49-.478-3.385-3.181-6.021-6.576-6.414-1.834-.212-45.215-4.951-69.805 17.32-1.841 1.667-3.498 3.437-5.024 5.271v-33.686c28.952-1.603 56.86-12.419 79.292-30.877 3.204-2.637 3.665-7.373 1.028-10.577-2.636-3.204-7.372-3.665-10.578-1.027-21.416 17.622-48.444 27.417-76.214 27.657-.342-.048-.688-.081-1.042-.081-.351 0-.693.032-1.031.079-66.619-.557-120.646-54.916-120.646-121.665 0-67.093 54.584-121.677 121.677-121.677s121.677 54.584 121.677 121.677c0 26.848-8.568 52.3-24.778 73.606-2.513 3.302-1.873 8.018 1.43 10.53 3.303 2.513 8.018 1.874 10.531-1.431 18.218-23.943 27.847-52.542 27.847-82.705 0-75.38-61.327-136.706-136.707-136.706s-136.706 61.326-136.706 136.706c0 72.859 57.293 132.583 129.192 136.498v33.68c-1.526-1.834-3.184-3.604-5.024-5.272-24.59-22.272-67.971-17.534-69.804-17.32-3.395.393-6.098 3.029-6.576 6.414-.24 1.698-5.587 41.837 19.427 64.49 16.996 15.393 42.965 17.884 57.992 17.883 1.437 0 2.766-.024 3.986-.06v36.635c-19.31 1.848-39.435 10.759-59.942 26.585-3.285 2.536-3.893 7.254-1.358 10.54 2.536 3.287 7.255 3.893 10.541 1.358 20.488-15.812 40.093-23.83 58.27-23.83 45.337 0 87.814 49.582 105.129 72.662h-210.281c5.834-7.796 14.533-18.609 25.229-29.477 2.911-2.958 2.873-7.715-.085-10.627-2.958-2.911-7.716-2.872-10.627.085-21.353 21.696-34.787 42.612-35.348 43.492-1.477 2.313-1.574 5.248-.255 7.654 1.319 2.407 3.845 3.903 6.589 3.903h239.294c2.745 0 5.271-1.496 6.59-3.903 1.319-2.406 1.222-5.34-.255-7.654-.589-.922-14.688-22.872-36.964-45.119zm-66.386-142.572c14.767-13.374 40.181-14.279 51.832-13.908.324 10.548-.908 32.399-15.057 45.214-14.769 13.376-40.187 14.282-51.832 13.908-.324-10.547.908-32.399 15.057-45.214zm-30.199 45.215c-11.652.372-37.068-.536-51.833-13.908-14.151-12.817-15.381-34.673-15.057-45.214 11.655-.37 37.068.535 51.833 13.908 14.151 12.817 15.381 34.673 15.057 45.214z"/></g></svg>