<svg id="Capa_1" style="fill:#ffffff;" height="512" viewBox="0 0 388.491 388.491" width="512" xmlns="http://www.w3.org/2000/svg"><g><g id="prev_1_"><path id="Combined-Shape_20_" clip-rule="evenodd" d="m194.246 0c-107.279 0-194.246 86.967-194.246 194.246s86.967 194.246 194.246 194.246 194.246-86.967 194.246-194.246-86.967-194.246-194.246-194.246zm24.367 116.617c2.822-2.194 6.903-1.995 9.497.598l.598.678c2.194 2.822 1.995 6.903-.598 9.497l-66.85 66.856 66.85 66.856.598.678c2.194 2.822 1.995 6.903-.598 9.496-2.81 2.81-7.365 2.81-10.174 0l-71.943-71.943-.598-.678c-2.194-2.822-1.995-6.903.598-9.497l71.943-71.943z" fill-rule="evenodd"/></g></g></svg>