<svg id="Capa_1" style="fill:#ffffff;" height="512" viewBox="0 0 388.491 388.491" width="512" xmlns="http://www.w3.org/2000/svg"><g><g id="next_1_"><path id="Combined-Shape_19_" clip-rule="evenodd" d="m194.246 0c107.279 0 194.246 86.967 194.246 194.246s-86.967 194.246-194.246 194.246-194.246-86.967-194.246-194.246 86.967-194.246 194.246-194.246zm-24.368 116.617c-2.822-2.194-6.903-1.995-9.497.598l-.598.678c-2.194 2.822-1.995 6.903.598 9.497l66.85 66.856-66.85 66.856-.598.678c-2.194 2.822-1.995 6.903.598 9.496 2.81 2.81 7.365 2.81 10.174 0l71.943-71.943.598-.678c2.194-2.822 1.995-6.903-.598-9.497l-71.943-71.943z" fill-rule="evenodd"/></g></g></svg>